<svg width="36" height="36" viewBox="0 0 36 36" fill="none" xmlns="http://www.w3.org/2000/svg">
<path fill-rule="evenodd" clip-rule="evenodd" d="M16.7812 0.040174C12.3571 0.334202 8.29715 2.20848 5.1589 5.40558C3.74564 6.84535 2.69452 8.31102 1.86921 9.99276C0.586119 12.6073 0.0145539 15.0511 0.0045087 17.9657C-0.00562095 20.8797 0.567464 23.3703 1.84878 25.9816L2.30453 26.9104L1.15726 30.3266C-0.0988983 34.067 -0.160942 34.3619 0.172323 35.0084C0.508374 35.6601 1.08053 36.0092 1.79779 35.9998C2.15984 35.9952 3.01453 35.7414 5.68007 34.8471L9.09806 33.7004L10.0274 34.1559C12.6402 35.4366 15.1217 36.0063 18.0474 35.9971C20.9953 35.9878 23.4564 35.4082 26.0667 34.1084C31.3456 31.4799 34.9837 26.4243 35.8619 20.4968C36.0461 19.2534 36.0461 16.7623 35.8619 15.519C35.3852 12.3013 34.0863 9.28068 32.107 6.78671C31.4667 5.97989 30.1416 4.65663 29.2745 3.95813C25.774 1.13816 21.3128 -0.260857 16.7812 0.040174ZM20.8068 3.90625C26.6152 5.10877 30.9979 9.55809 32.1627 15.4346C32.3988 16.6257 32.3729 19.6007 32.1162 20.782C31.5451 23.4096 30.3934 25.7257 28.7584 27.5345C26.5927 29.9304 23.9953 31.4221 20.7909 32.1101C19.5803 32.37 16.7257 32.3923 15.4306 32.1519C13.8186 31.8526 12.1702 31.2215 10.3375 30.2016C9.52376 29.7487 9.32218 29.7721 6.80707 30.6115L4.68719 31.319L5.395 29.2002C6.23483 26.6864 6.2583 26.4849 5.80517 25.6716C4.78807 23.8457 4.21659 22.3814 3.88653 20.7547C3.63371 19.5092 3.61303 16.6263 3.84837 15.4346C4.75185 10.8586 7.62074 7.08994 11.7164 5.09873C13.1263 4.41323 14.5547 3.98851 16.3592 3.71802C16.4984 3.69718 17.3721 3.69288 18.3007 3.70848C19.5741 3.72991 20.1899 3.77851 20.8068 3.90625ZM17.6254 10.8292C17.0419 10.9753 16.6451 11.2921 16.3479 11.8489C16.2095 12.1083 16.187 12.3868 16.1626 14.1414L16.1349 16.1385L14.1367 16.1663C12.2824 16.1923 12.1142 16.2074 11.8008 16.3758C11.1475 16.7268 10.8026 17.291 10.8031 18.0079C10.8035 18.7389 11.1538 19.2969 11.843 19.6643C12.1026 19.8027 12.3813 19.8252 14.1367 19.8495L16.1349 19.8773L16.1627 21.8744C16.1886 23.7277 16.2038 23.8959 16.3722 24.2091C16.7233 24.8617 17.2878 25.2066 18.0052 25.2066C18.7227 25.2066 19.2871 24.8617 19.6382 24.2091C19.8067 23.8959 19.8218 23.7277 19.8477 21.8744L19.8756 19.8773L21.8737 19.8495C23.6292 19.8252 23.9079 19.8027 24.1674 19.6643C24.8569 19.2967 25.2072 18.7387 25.2072 18.0079C25.2072 17.2771 24.8569 16.7191 24.1674 16.3515C23.9079 16.2131 23.6292 16.1906 21.8737 16.1663L19.8756 16.1385L19.8477 14.1414C19.8218 12.288 19.8067 12.1199 19.6382 11.8067C19.2362 11.0592 18.3756 10.6412 17.6254 10.8292Z" fill="#1FF48E"/>
</svg>
