<svg width="55" height="54" viewBox="0 0 55 54" fill="none" xmlns="http://www.w3.org/2000/svg">
<path fill-rule="evenodd" clip-rule="evenodd" d="M14.1703 0.0837276C7.28076 1.16004 2.03161 5.97356 0.358605 12.7491L0.0592558 13.9614L0.0192586 31.6037C-0.0201656 49.0069 -0.0176443 49.2563 0.209618 50.0021C0.491662 50.9277 1.15821 51.9801 1.83323 52.5659C2.54951 53.1873 3.79012 53.7496 4.74558 53.8858C5.25649 53.9585 12.8524 54 25.661 54C38.4697 54 46.0656 53.9585 46.5765 53.8858C47.532 53.7496 48.7726 53.1873 49.4889 52.5659C50.1556 51.9873 50.8233 50.94 51.1051 50.0308C51.3098 49.3702 51.3326 48.9655 51.3326 46.002V42.7076L52.015 42.3451C53.3908 41.614 54.3275 40.4992 54.7725 39.0632C54.983 38.3835 55 37.995 55 33.8489C55 29.0015 54.9807 28.817 54.342 27.5599C53.9502 26.7886 52.7976 25.6701 51.9916 25.2791L51.3326 24.9593L51.3313 21.6882C51.3302 19.2886 51.2882 18.2608 51.1733 17.8307C50.6389 15.83 48.8721 14.1699 46.8755 13.7924C46.5363 13.7282 45.75 13.6758 45.1284 13.6758H43.9979V9.58373C43.9979 5.16036 43.9718 4.92627 43.3399 3.68247C42.9532 2.92091 41.7959 1.79285 41.0107 1.41195C40.66 1.24184 39.9693 1.02054 39.4759 0.920236C38.0422 0.628795 37.5895 0.748981 32.508 2.76976C30.0652 3.74131 28.0372 4.53612 28.0013 4.53612C27.9655 4.53612 27.5919 4.24433 27.1711 3.88766C25.1176 2.14735 22.5744 0.893845 19.8735 0.290513C18.7014 0.0287753 15.3094 -0.0942674 14.1703 0.0837276ZM18.7274 3.85601C20.5296 4.18058 22.6757 5.08461 23.9993 6.07661C25.0975 6.89986 26.435 8.28567 27.1164 9.30645C30.5146 14.3977 29.8527 21.1133 25.5279 25.4246C21.2028 29.7361 14.4568 30.3964 9.35948 27.0068C8.44756 26.4005 7.03883 25.0809 6.28748 24.1293C4.43122 21.7784 3.42189 18.2206 3.76043 15.2219C4.00901 13.0194 4.67544 11.1111 5.78322 9.42904C6.49148 8.35376 8.40332 6.44791 9.48199 5.74187C12.1456 3.99848 15.6029 3.29324 18.7274 3.85601ZM39.5081 4.84104C39.6768 4.9634 39.9308 5.29003 40.0727 5.56661C40.3248 6.05856 40.3305 6.15407 40.3305 9.87277V13.6758H36.5507H32.7709L32.7029 13.3616C32.3268 11.6264 31.6245 9.69957 30.9277 8.49108C30.6785 8.05855 30.4749 7.67297 30.4755 7.63424C30.476 7.59539 32.1908 6.88033 34.2861 6.04508C37.696 4.68578 38.1537 4.53132 38.6486 4.57245C38.9527 4.59781 39.3395 4.71857 39.5081 4.84104ZM15.5668 9.36575C15.3541 9.50855 15.0628 9.79897 14.9196 10.011C14.672 10.3772 14.6589 10.5015 14.6589 12.4931V14.5898H12.5557C10.5578 14.5898 10.4331 14.6028 10.0658 14.8495C8.84639 15.6687 8.84639 17.1667 10.0658 17.9858C10.4331 18.2326 10.5578 18.2456 12.5557 18.2456H14.6589V20.3423C14.6589 22.3339 14.672 22.4582 14.9196 22.8244C15.7413 24.0399 17.244 24.0399 18.0657 22.8244C18.3132 22.4582 18.3263 22.3339 18.3263 20.3423V18.2456H20.4295C22.4275 18.2456 22.5521 18.2326 22.9195 17.9858C24.1389 17.1667 24.1389 15.6687 22.9195 14.8495C22.5521 14.6028 22.4275 14.5898 20.4295 14.5898H18.3263V12.4931C18.3263 10.5015 18.3132 10.3772 18.0657 10.011C17.4575 9.11121 16.3654 8.82925 15.5668 9.36575ZM47.0298 17.8979C47.2544 18.1149 47.4891 18.4748 47.5511 18.6976C47.6132 18.9202 47.6642 20.3491 47.6646 21.8729L47.6653 24.6434L44.6569 24.6451C41.4046 24.6469 40.7084 24.7335 39.6506 25.2679C38.8246 25.6851 37.7904 26.6946 37.3554 27.5082C36.6866 28.7589 36.666 28.949 36.6645 33.8567C36.6633 37.9972 36.68 38.3833 36.8906 39.0632C37.3582 40.5722 38.3672 41.73 39.8148 42.4184C40.9179 42.9431 41.674 43.0351 44.8861 43.0361L47.6653 43.037V45.8689C47.6653 48.5805 47.6543 48.7222 47.4074 49.204C47.2655 49.4805 47.004 49.8128 46.826 49.9421L46.5024 50.1773H25.661H4.81973L4.49609 49.9421C4.3181 49.8128 4.05657 49.4805 3.91469 49.204L3.65683 48.7008V37.7424V26.7838L4.71693 27.8607C7.44282 30.6295 10.7648 32.2936 14.5024 32.7626C16.1151 32.9649 18.6419 32.8401 20.1874 32.4817C24.6782 31.44 28.4975 28.6006 30.804 24.5892C31.8565 22.7587 32.6812 20.2296 32.8384 18.3512L32.9145 17.4408L39.7679 17.4718L46.6212 17.503L47.0298 17.8979ZM50.4169 28.6706C50.6253 28.812 50.9037 29.0727 51.0356 29.25C51.2667 29.5608 51.2765 29.718 51.3079 33.6485C51.3402 37.7001 51.3388 37.7276 51.0787 38.2319C50.5545 39.2481 50.7606 39.2097 45.8316 39.2097C40.9025 39.2097 41.1087 39.2481 40.5845 38.2319C40.3243 37.7276 40.323 37.7001 40.3553 33.6485C40.3867 29.718 40.3964 29.5608 40.6276 29.25C40.7595 29.0727 41.0379 28.812 41.2462 28.6706C41.6221 28.4156 41.658 28.4135 45.8316 28.4135C50.0052 28.4135 50.041 28.4156 50.4169 28.6706Z" fill="#1FF48E"/>
</svg>
