<svg width="49" height="49" viewBox="0 0 49 49" fill="none" xmlns="http://www.w3.org/2000/svg">
<path fill-rule="evenodd" clip-rule="evenodd" d="M4.97841 0.171419C3.20866 0.600204 1.44305 2.02882 0.675651 3.65292C0.446116 4.1387 0.20021 4.81703 0.129195 5.1602C0.0386288 5.59782 0 11.3769 0 24.4974C0 37.6179 0.0386288 43.397 0.129195 43.8346C0.620534 46.2082 2.78457 48.3721 5.15824 48.8634C6.03752 49.0455 42.9551 49.0455 43.8344 48.8634C46.222 48.3692 48.3692 46.2221 48.8634 43.8346C49.0455 42.9554 49.0455 6.03944 48.8634 5.1602C48.3692 2.77274 46.222 0.625641 43.8344 0.131379C42.8727 -0.0676447 5.80763 -0.0294886 4.97841 0.171419ZM43.6341 4.08371C44.1852 4.38118 44.6383 4.84247 44.9456 5.4194C45.1557 5.8138 45.1665 6.42677 45.1969 19.6396C45.2144 27.234 45.1995 33.4476 45.1637 33.4476C45.1279 33.4476 43.9742 32.5549 42.5998 31.4638C39.735 29.1897 39.3918 28.9547 38.5282 28.6771C37.6379 28.3909 35.9759 28.4753 35.1204 28.8503C34.7777 29.0004 32.9758 30.2278 31.1162 31.5775C27.9342 33.8871 27.7043 34.0318 27.2131 34.0341L26.6911 34.0364L23.15 30.5255C18.9068 26.3184 18.9134 26.3228 16.7823 26.3228C15.6122 26.3228 15.4193 26.3545 14.7885 26.6498C13.9637 27.0361 14.21 26.84 8.53838 31.6246C6.07697 33.701 3.99584 35.4412 3.91364 35.4919C3.79316 35.5662 3.77043 32.7023 3.79587 20.7078C3.82625 6.45244 3.83674 5.81439 4.04707 5.4194C4.4767 4.61283 5.13457 4.07982 5.94742 3.87985C6.14175 3.83204 14.5947 3.80119 24.7319 3.81132L43.163 3.82957L43.6341 4.08371ZM30.5371 10.182C28.2279 10.7087 26.1804 12.5605 25.4559 14.7778C24.2768 18.3862 26.2751 22.3695 29.8509 23.5379C33.4595 24.7169 37.443 22.7187 38.6114 19.1431C39.7911 15.5328 37.795 11.5564 34.2124 10.3805C33.1672 10.0373 31.5531 9.9502 30.5371 10.182ZM33.2702 14.1184C34.4474 14.655 35.0975 15.6662 35.0931 16.9541C35.0871 18.7553 33.8236 20.0223 32.0336 20.0223C30.2451 20.0223 28.9768 18.752 28.9768 16.9604C28.9768 15.6986 29.5527 14.747 30.6463 14.2021C31.4049 13.8241 32.5449 13.7878 33.2702 14.1184ZM20.9043 33.7314C24.044 36.924 24.3862 37.2359 25.1441 37.5931C25.9275 37.9622 26.0357 37.9816 27.3228 37.9816C28.5366 37.9816 28.7444 37.9498 29.3249 37.6755C29.6812 37.5072 31.4534 36.222 33.2633 34.8197C36.1577 32.5768 36.6045 32.2704 36.9731 32.2741C37.2036 32.2764 37.5037 32.3426 37.64 32.4213C37.7764 32.4999 39.5404 33.8892 41.5601 35.5085L45.2325 38.4526L45.197 40.8079C45.1647 42.9516 45.1388 43.2055 44.9091 43.6343C44.6142 44.1847 44.1532 44.6378 43.5752 44.9457C43.1779 45.1572 42.4837 45.1653 24.4963 45.1653C6.50896 45.1653 5.8147 45.1572 5.41746 44.9457C4.25258 44.3254 3.86547 43.6038 3.7934 41.9185L3.74016 40.6736L10.0091 35.4184C13.4571 32.528 16.3916 30.1449 16.5302 30.1225C17.1982 30.0148 17.4698 30.2388 20.9043 33.7314Z" fill="#1FF48E"/>
</svg>
