<svg width="48" height="47" viewBox="0 0 48 47" fill="none" xmlns="http://www.w3.org/2000/svg">
<path fill-rule="evenodd" clip-rule="evenodd" d="M3.97566 0.107851C2.49319 0.440112 1.13757 1.49662 0.525565 2.79693C0.0745331 3.755 -0.0416233 4.33803 0.0121892 5.37259L0.0574705 6.24229L3.49266 14.8755L6.92776 23.5087L3.49266 32.1418L0.0574705 40.775L0.0129392 41.6329C-0.114092 44.0753 1.35141 46.1445 3.69441 46.8313C4.50535 47.0689 5.78317 47.0536 6.51432 46.7974C6.94482 46.6465 33.5547 33.7538 44.4675 28.4086C45.6828 27.8134 45.9472 27.6417 46.4918 27.0945C48.1084 25.4701 48.4636 23.0436 47.3719 21.0821C47.0043 20.4216 46.2618 19.6117 45.6935 19.2513C45.0928 18.8705 7.32282 0.52028 6.63189 0.273652C5.81157 -0.0192317 4.81904 -0.0811244 3.97566 0.107851ZM23.7101 12.2975C33.6359 17.1301 42.0945 21.2459 42.507 21.4434L43.257 21.8026L26.5742 21.7842L9.89139 21.7659L6.68129 13.7113C4.91579 9.28135 3.44344 5.48064 3.40941 5.26539C3.30666 4.61386 3.59935 4.02395 4.21913 3.63366C4.47798 3.47069 4.6442 3.44016 5.10067 3.47182C5.62229 3.50799 6.97342 4.14877 23.7101 12.2975ZM42.6007 25.5255C42.2398 25.6984 33.7812 29.8144 23.8038 34.6722C3.85135 44.3868 5.0536 43.851 4.24013 43.3916C3.77279 43.1277 3.47654 42.6855 3.40229 42.1411C3.34632 41.7307 3.52313 41.253 6.55623 33.6202C8.32342 29.1728 9.80673 25.4598 9.85239 25.3692C9.93095 25.2131 10.8209 25.2045 26.5962 25.2077L43.257 25.2111L42.6007 25.5255Z" fill="#1FF48E"/>
</svg>
