<svg width="71" height="71" viewBox="0 0 71 71" fill="none" xmlns="http://www.w3.org/2000/svg">
<path fill-rule="evenodd" clip-rule="evenodd" d="M31.5159 0.121037C24.6718 0.948611 17.9444 3.82854 12.8229 8.12298C11.5274 9.20912 8.84026 11.9236 7.79267 13.2041C6.63603 14.6178 4.81739 17.4395 3.89009 19.2591C1.38045 24.1832 0.197665 28.7885 0.0238049 34.3132C-0.105045 38.4084 0.282297 41.6384 1.35398 45.4036C2.59351 49.7585 5.19111 54.6461 8.13658 58.165C9.22174 59.4616 11.9338 62.1512 13.2131 63.1997C15.7542 65.2825 19.805 67.5808 23.0369 68.7735C27.768 70.5194 31.5779 71.1357 36.6531 70.9756C42.1727 70.8016 46.7739 69.6178 51.6935 67.1058C53.5115 66.1777 56.3307 64.3574 57.7431 63.1997C59.0224 62.1512 61.7344 59.4616 62.8196 58.165C66.467 53.8072 69.1955 48.0745 70.3279 42.3897C72.1568 33.2072 70.2123 23.4984 64.9921 15.7482C63.066 12.8886 60.3727 9.93835 57.6662 7.72355C53.2795 4.13391 47.3663 1.47495 41.4213 0.418785C39.2683 0.0361692 33.6205 -0.133565 31.5159 0.121037ZM38.0139 5.19594C52.109 6.44102 63.3288 16.9815 65.5318 31.0476C65.8815 33.2811 65.8815 37.6974 65.5318 39.9309C64.0919 49.1253 58.7273 57.0604 50.7912 61.7354C47.4925 63.6785 44.1484 64.8646 39.9881 65.5671C37.856 65.9271 33.2952 65.9318 31.0622 65.5762C24.4381 64.5216 18.665 61.6033 14.024 56.9632C5.19253 48.1335 2.67925 35.0663 7.58426 23.4816C10.5378 16.5058 16.5118 10.5264 23.4813 7.57016C28.26 5.54318 33.0627 4.75859 38.0139 5.19594ZM24.3048 20.4459C24.1304 20.5423 23.8184 20.7722 23.6112 20.9566C23.2313 21.2948 18.4737 28.3185 17.9889 29.257C17.3933 30.4097 17.807 31.7973 18.9831 32.5904L19.5178 32.9512H35.4781H51.4383L51.9731 32.5904C53.6594 31.4531 53.6594 29.3731 51.9731 28.2357L51.4383 27.875H38.3074C31.0853 27.875 25.1764 27.8369 25.1764 27.7904C25.1764 27.7438 25.6649 26.9765 26.2621 26.0852C27.6913 23.9513 27.8707 23.5794 27.8707 22.7509C27.8707 21.4311 26.6802 20.2568 25.3511 20.2655C24.95 20.2682 24.4791 20.3494 24.3048 20.4459ZM18.9831 38.388C18.1617 38.942 17.7276 39.6948 17.7276 40.5654C17.7276 41.436 18.1617 42.1888 18.9831 42.7428L19.5178 43.1035H32.6488C39.8709 43.1035 45.7797 43.1416 45.7797 43.188C45.7797 43.2347 45.2913 44.002 44.6941 44.8933C43.2649 47.0272 43.0854 47.399 43.0854 48.2276C43.0854 49.5283 44.2738 50.7177 45.5734 50.7177C46.3801 50.7177 46.9558 50.4552 47.543 49.8197C47.9982 49.3274 52.5444 42.5399 52.9669 41.7221C53.5628 40.5687 53.1494 39.1814 51.9731 38.388L51.4383 38.0273H35.4781H19.5178L18.9831 38.388Z" fill="#1FF48E"/>
</svg>
